<svg width="24" height="24" viewBox="0 0 24 24" fill="none" xmlns="http://www.w3.org/2000/svg">
  <path d="M22 6.5C22 5.67 21.33 5 20.5 5H19V4.5C19 3.67 18.33 3 17.5 3H4C2.9 3 2 3.9 2 5V17C2 18.1 2.9 19 4 19H18C19.1 19 20 18.1 20 17V7H20.5C21.33 7 22 6.33 22 5.5V6.5ZM15 9H5V7H15V9ZM18 17H4V5H17.5C17.78 5 18 5.22 18 5.5V17Z" fill="currentColor"/>
  <path d="M8 11H6V13H8V11Z" fill="currentColor"/>
  <path d="M11 11H9V13H11V11Z" fill="currentColor"/>
  <path d="M14 11H12V13H14V11Z" fill="currentColor"/>
  <circle cx="18" cy="18" r="6" fill="currentColor"/>
</svg> 