<svg width="24" height="24" viewBox="0 0 24 24" fill="none" xmlns="http://www.w3.org/2000/svg">
  <path d="M13 2.05V5.08C16.39 5.57 19 8.47 19 12C19 15.87 15.87 19 12 19C8.47 19 5.57 16.39 5.08 13H2.05C2.56 17.84 6.47 21.5 11.38 21.94C11.59 21.97 11.79 22 12 22C17.52 22 22 17.52 22 12C22 6.48 17.52 2 12 2C11.79 2 11.59 2.03 11.38 2.06C6.47 2.5 2.56 6.16 2.05 11H5.08C5.57 7.61 8.47 5 12 5C15.87 5 19 8.13 19 12C19 15.53 16.39 18.43 13 18.92V21.95C17.84 21.44 21.5 17.53 21.94 12.62C21.97 12.41 22 12.21 22 12C22 6.48 17.52 2 12 2Z" fill="currentColor"/>
</svg> 